<mxfile host="app.diagrams.net" agent="Mozilla/5.0 (Macintosh; Intel Mac OS X 10_15_7) AppleWebKit/537.36 (KHTML, like Gecko) Chrome/136.0.0.0 Safari/537.36" scale="1" border="0" version="27.0.3">
  <diagram name="Page-1" id="HsIWlA9ryuRvEllhMJ8e">
    <mxGraphModel dx="1234" dy="790" grid="1" gridSize="10" guides="1" tooltips="1" connect="1" arrows="1" fold="1" page="1" pageScale="1" pageWidth="827" pageHeight="1169" math="0" shadow="0">
      <root>
        <mxCell id="0" />
        <mxCell id="1" parent="0" />
        <mxCell id="S-QRZucQH4E3hAvhyTwo-1" value="" style="rounded=0;whiteSpace=wrap;html=1;strokeColor=none;" vertex="1" parent="1">
          <mxGeometry x="90" width="570" height="370" as="geometry" />
        </mxCell>
        <mxCell id="x8EXjXUA_OM579pIJwaL-1" value="" style="html=1;verticalLabelPosition=bottom;align=center;labelBackgroundColor=#ffffff;verticalAlign=top;strokeWidth=2;strokeColor=#0080F0;shadow=0;dashed=0;shape=mxgraph.ios7.icons.user;" parent="1" vertex="1">
          <mxGeometry x="130" y="200" width="30" height="30" as="geometry" />
        </mxCell>
        <mxCell id="x8EXjXUA_OM579pIJwaL-2" value="User" style="text;html=1;align=center;verticalAlign=middle;whiteSpace=wrap;rounded=0;fontColor=#0B549D;" parent="1" vertex="1">
          <mxGeometry x="115" y="230" width="60" height="30" as="geometry" />
        </mxCell>
        <mxCell id="x8EXjXUA_OM579pIJwaL-3" value="&lt;b&gt;Application&lt;/b&gt;" style="rounded=1;whiteSpace=wrap;html=1;fillColor=#dae8fc;strokeColor=#6c8ebf;fontColor=#0066CC;" parent="1" vertex="1">
          <mxGeometry x="270" y="185" width="120" height="60" as="geometry" />
        </mxCell>
        <mxCell id="x8EXjXUA_OM579pIJwaL-4" value="&lt;b&gt;&lt;font color=&quot;#3399ff&quot;&gt;Cache&lt;/font&gt;&lt;/b&gt;" style="rounded=1;whiteSpace=wrap;html=1;fillColor=#DDEAFF;strokeColor=#6c8ebf;fontColor=#A9C4EB;" parent="1" vertex="1">
          <mxGeometry x="460" y="110" width="120" height="60" as="geometry" />
        </mxCell>
        <mxCell id="x8EXjXUA_OM579pIJwaL-5" value="&lt;b&gt;Database&lt;/b&gt;" style="rounded=1;whiteSpace=wrap;html=1;fillColor=#e1d5e7;strokeColor=#9673a6;fontColor=#7241A3;" parent="1" vertex="1">
          <mxGeometry x="460" y="260" width="120" height="60" as="geometry" />
        </mxCell>
        <mxCell id="x8EXjXUA_OM579pIJwaL-6" value="" style="endArrow=classic;html=1;rounded=0;" parent="1" edge="1">
          <mxGeometry width="50" height="50" relative="1" as="geometry">
            <mxPoint x="170" y="200" as="sourcePoint" />
            <mxPoint x="260" y="200" as="targetPoint" />
          </mxGeometry>
        </mxCell>
        <mxCell id="x8EXjXUA_OM579pIJwaL-7" value="" style="endArrow=classic;html=1;rounded=0;entryX=0.848;entryY=-0.129;entryDx=0;entryDy=0;entryPerimeter=0;" parent="1" edge="1">
          <mxGeometry width="50" height="50" relative="1" as="geometry">
            <mxPoint x="254.12" y="226" as="sourcePoint" />
            <mxPoint x="170.0000000000001" y="226.13" as="targetPoint" />
          </mxGeometry>
        </mxCell>
        <mxCell id="x8EXjXUA_OM579pIJwaL-8" value="" style="endArrow=classic;html=1;rounded=0;" parent="1" edge="1">
          <mxGeometry width="50" height="50" relative="1" as="geometry">
            <mxPoint x="390" y="170" as="sourcePoint" />
            <mxPoint x="440" y="150" as="targetPoint" />
          </mxGeometry>
        </mxCell>
        <mxCell id="x8EXjXUA_OM579pIJwaL-9" value="" style="endArrow=classic;html=1;rounded=0;" parent="1" edge="1">
          <mxGeometry width="50" height="50" relative="1" as="geometry">
            <mxPoint x="390" y="255" as="sourcePoint" />
            <mxPoint x="440" y="280" as="targetPoint" />
          </mxGeometry>
        </mxCell>
        <mxCell id="x8EXjXUA_OM579pIJwaL-10" value="1. User requests for data" style="text;html=1;align=center;verticalAlign=middle;whiteSpace=wrap;rounded=0;fontSize=10;fontStyle=2" parent="1" vertex="1">
          <mxGeometry x="160" y="155" width="105" height="30" as="geometry" />
        </mxCell>
        <mxCell id="x8EXjXUA_OM579pIJwaL-11" value="2a. Fetches from cache. If not found in cache, go to (3)" style="text;html=1;align=center;verticalAlign=middle;whiteSpace=wrap;rounded=0;fontSize=10;fontStyle=2" parent="1" vertex="1">
          <mxGeometry x="350" y="95" width="105" height="30" as="geometry" />
        </mxCell>
        <mxCell id="x8EXjXUA_OM579pIJwaL-12" value="3a. Fetches from DB" style="text;html=1;align=center;verticalAlign=middle;whiteSpace=wrap;rounded=0;fontSize=10;fontStyle=2" parent="1" vertex="1">
          <mxGeometry x="340" y="305" width="105" height="30" as="geometry" />
        </mxCell>
        <mxCell id="x8EXjXUA_OM579pIJwaL-13" value="2b / 3c. Returns data. END" style="text;html=1;align=center;verticalAlign=middle;whiteSpace=wrap;rounded=0;fontSize=10;fontStyle=2" parent="1" vertex="1">
          <mxGeometry x="160" y="250" width="105" height="30" as="geometry" />
        </mxCell>
        <mxCell id="x8EXjXUA_OM579pIJwaL-14" value="Fast but limited storage" style="text;html=1;align=center;verticalAlign=middle;whiteSpace=wrap;rounded=0;fontSize=10;" parent="1" vertex="1">
          <mxGeometry x="466" y="170" width="105" height="30" as="geometry" />
        </mxCell>
        <mxCell id="x8EXjXUA_OM579pIJwaL-15" value="Source of truth for data, but slower" style="text;html=1;align=center;verticalAlign=middle;whiteSpace=wrap;rounded=0;fontSize=10;" parent="1" vertex="1">
          <mxGeometry x="475" y="325" width="105" height="30" as="geometry" />
        </mxCell>
        <mxCell id="x8EXjXUA_OM579pIJwaL-16" value="" style="endArrow=classic;html=1;rounded=0;dashed=1;" parent="1" edge="1">
          <mxGeometry width="50" height="50" relative="1" as="geometry">
            <mxPoint x="520" y="250" as="sourcePoint" />
            <mxPoint x="520" y="205" as="targetPoint" />
          </mxGeometry>
        </mxCell>
        <mxCell id="x8EXjXUA_OM579pIJwaL-17" value="3b. Returns data" style="text;html=1;align=center;verticalAlign=middle;whiteSpace=wrap;rounded=0;fontSize=10;fontStyle=2" parent="1" vertex="1">
          <mxGeometry x="530" y="215" width="105" height="30" as="geometry" />
        </mxCell>
        <mxCell id="x8EXjXUA_OM579pIJwaL-19" value="&lt;b style=&quot;font-size: 16px;&quot;&gt;Cache Aside strategy&lt;/b&gt;" style="text;html=1;align=center;verticalAlign=middle;whiteSpace=wrap;rounded=0;fontSize=16;" parent="1" vertex="1">
          <mxGeometry x="250" y="20" width="190" height="30" as="geometry" />
        </mxCell>
      </root>
    </mxGraphModel>
  </diagram>
</mxfile>
